<svg width="340" height="120" viewBox="0 0 340 120" fill="none" xmlns="http://www.w3.org/2000/svg">
  <style>
    .header { font: 600 16px 'Segoe UI', Ubuntu, Sans-Serif; fill: #70a5fd; }
    .desc { font: 400 12px 'Segoe UI', Ubuntu, Sans-Serif; fill: #9f9f9f; }
    .stat { font: 600 12px 'Segoe UI', Ubuntu, Sans-Serif; fill: #d3d3d3; }
    .st-label { font: 400 12px 'Segoe UI', Ubuntu, Sans-Serif; fill: #9f9f9f; }
    .icon { fill: #d3d3d3; }
  </style>
  <rect x="0.5" y="0.5" rx="4.5" height="99%" width="99%" stroke="#e4e2e2" stroke-width="1" fill="#00000000" stroke-opacity="1"/>
  
  <!-- Title (y=28) -->
  <g transform="translate(20, 28)">
    <path class="icon" transform="scale(1.0) translate(0, -2)" d="M2 2.5A2.5 2.5 0 014.5 0h8.75a.75.75 0 01.75.75v12.5a.75.75 0 01-.75.75h-2.5a.75.75 0 110-1.5h1.75v-2h-8a1 1 0 00-.714 1.7.75.75 0 01-1.072 1.05A2.495 2.495 0 012 11.5v-9zm10.5-1V9h-8c-.356 0-.694.074-1 .208V2.5a1 1 0 011-1h8zM5 12.25v3.25a.25.25 0 00.4.2l1.45-1.087a.25.25 0 01.3 0L8.6 15.7a.25.25 0 00.4-.2v-3.25a.25.25 0 00-.25-.25h-3.5a.25.25 0 00-.25.25z"/>
    <text x="25" y="10" class="header">k4nkan</text>
  </g>

  <!-- Description (y=58, Gap=30) -->
  <g transform="translate(20, 58)">
    <text x="0" y="0" class="desc">Convert Spotify and GitHub API data into CSV and</text>
    <text x="0" y="18" class="desc">display it on my profile overview.</text>
  </g>

  <!-- Stats (y=98, Gap=40 from top of desc) -->
  <g transform="translate(20, 98)">
    <!-- Language -->
    <g transform="translate(0, 0)">
      <circle cx="5" cy="-4" r="4" fill="#3572A5"/>
      <text x="14" y="0" class="st-label">Python</text>
    </g>
    
    <!-- Stars -->
    <g transform="translate(100, 0)">
      <path class="icon" transform="scale(0.8) translate(2, -12)" d="M8 .25a.75.75 0 01.673.418l1.882 3.815 4.21.612a.75.75 0 01.416 1.279l-3.046 2.97.719 4.192a.75.75 0 01-1.088.791L8 12.347l-3.766 1.98a.75.75 0 01-1.088-.79l.72-4.194L.818 6.374a.75.75 0 01.416-1.28l4.21-.611L7.327.668A.75.75 0 018 .25z"/>
      <text x="20" y="0" class="stat">1</text>
    </g>

    <!-- Forks -->
    <g transform="translate(200, 0)">
      <path class="icon" transform="scale(0.8) translate(2, -12)" d="M5 3.25a.75.75 0 11-1.5 0 .75.75 0 011.5 0zm0 2.122a2.25 2.25 0 10-1.5 0v.878A2.25 2.25 0 005.75 8.5h1.5v2.128a2.251 2.251 0 101.5 0V8.5h1.5a2.25 2.25 0 002.25-2.25v-.878a2.25 2.25 0 10-1.5 0v.878a.75.75 0 01-.75.75h-4.5A.75.75 0 015 6.25v-.878zm3.75 7.378a.75.75 0 11-1.5 0 .75.75 0 011.5 0zm3-8.75a.75.75 0 100-1.5.75.75 0 000 1.5z"/>
      <text x="20" y="0" class="stat">0</text>
    </g>
  </g>
</svg>
